<?xml version="1.0" encoding="utf-8"?>
<!-- Generator: Adobe Illustrator 16.0.0, SVG Export Plug-In . SVG Version: 6.00 Build 0)  -->
<!DOCTYPE svg PUBLIC "-//W3C//DTD SVG 1.1//EN" "http://www.w3.org/Graphics/SVG/1.1/DTD/svg11.dtd">
<svg version="1.1" id="Livello_1" xmlns="http://www.w3.org/2000/svg" xmlns:xlink="http://www.w3.org/1999/xlink" x="0px" y="0px"
   width="768px" height="272.667px" viewBox="0 0 768 272.667" enable-background="new 0 0 768 272.667" xml:space="preserve">
<g>
	<path fill="#AEC84D" d="M170.667,41.334"/>
	<path fill="#AEC84D" d="M46.167,106.667v92.5c0,0-0.667,52.667,48.5,51.5c7.667-0.333,36,1,43-21c0-0.5,0,17,0,17h34l0.062-140h-34
		l-0.062,86.5c0,0,1,31-28,29.5s-28.5-27-28.5-27l-0.167-89H46.167z"/>
	<polygon fill="#141215" points="227,250.334 241,250.334 286.667,137.334 332.333,250.001 346.333,250.001 403,41.334 
		368.667,32.667 334.333,161.667 293.667,60.001 279.333,60.001 240,160.667 204.667,32.667 170.667,41.334 	"/>
	<path fill="#141215" d="M402,203c0,0,8.667,26.001,23,35.334s38.666,12.999,50.333,12.666s71.001-1.333,71.667-56.333
		c5-28-19.333-48.334-26-52.334s-28.334-18-45.667-23s-34.334-16-35.667-24.666s0.001-34,37.334-34.334
		c26,2.668,27,13.668,31,19.668l7,14.332l28.666-13.332c0,0-11.334-27-14-29.334s-13.333-19-55.333-18.666
		c-42,0.332-66.666,17.666-68.333,47.666s4.666,44,35.333,62.666c19,10.334,39.001,12.667,59.667,28.334
		c14.333,11.667,11.334,25.001,11,30.667s-7.334,21.666-36.334,20.333S441,209.668,439,206.334s-9-17-9-17L402,203z"/>
	<rect x="710.667" y="36.334" fill="#141215" width="35.333" height="211.333"/>
	<path fill="#141215" d="M636.333,135.001v27.666h27.333v56c0,0-8.334,5.001-26.667,4.334s-47.332,1.666-49.666-81.667
		s37.334-80.667,42-80.667s28,0.334,40,33.334C669.667,94.334,698,80.667,698,80.667s-12.334-50.333-67-47.666
		c-54.666,2.666-75.666,30.999-78.666,102c-3,71,21.999,117.334,81.666,115s64-7.334,64-7.334l-0.083-107.583L636.333,135.001z"/>
	<g>
		<circle fill="#AEC84D" cx="521.333" cy="71.001" r="11.667"/>
		<circle fill="#252326" cx="521.333" cy="71.001" r="3.5"/>
	</g>
	<g>
		<path fill="none" d="M81.147,185.163L81,106.667H46.167v90.88C56.139,192.016,68.027,187.752,81.147,185.163z"/>
		<path fill="none" d="M171.729,106.667h-34l-0.057,78.023c12.606,2.254,24.141,6.043,34.017,11.019L171.729,106.667z"/>
		<path opacity="0.1" fill="#FFFFFF" d="M46.167,199.167c0,0-0.667,52.667,48.5,51.5c7.667-0.333,36,1,43-21c0-0.5,0,17,0,17h34
			l0.023-50.958c-9.876-4.976-21.411-8.765-34.017-11.019l-0.006,8.477c0,0,1,31-28,29.5s-28.5-27-28.5-27l-0.02-10.504
			c-13.12,2.589-25.008,6.853-34.98,12.384V199.167z"/>
	</g>
	<g>
		<path fill="none" d="M342.89,129.517l-8.557,32.15l-13.896-34.738c-22.89-2.918-44.071-6.524-63.071-10.708L240,160.667
			l-14.526-52.621c-16.399-4.896-30.286-10.312-41.175-16.132L227,250.334h14l45.667-113l45.667,112.667h14l31.898-117.459
			C366.127,131.707,354.33,130.695,342.89,129.517z"/>
		<path opacity="0.1" fill="#FFFFFF" d="M403,41.334l-34.333-8.667l-25.776,96.85c11.44,1.178,23.237,2.19,35.341,3.025L403,41.334z
			"/>
		<path opacity="0.1" fill="#FFFFFF" d="M204.667,32.667l-34,8.667l13.633,50.58c10.889,5.82,24.775,11.236,41.175,16.132
			L204.667,32.667z"/>
		<path opacity="0.1" fill="#FFFFFF" d="M293.667,60.001h-14.333l-21.967,56.22c19,4.185,40.182,7.79,63.071,10.708L293.667,60.001z
			"/>
	</g>
	<path opacity="0.1" fill="#FFFFFF" d="M474.333,33.001c-42,0.332-66.666,17.666-68.333,47.666
		c-1.409,25.351,2.897,39.276,22.77,54.247c10.646,0.275,21.452,0.419,32.396,0.419c15.9,0,31.514-0.299,46.756-0.872
		c-9.466-5.486-21.856-12.032-32.589-15.128c-17.333-5-34.334-16-35.667-24.666s0.001-34,37.334-34.334
		c26,2.668,27,13.668,31,19.668l7,14.332l28.666-13.332c0,0-11.334-27-14-29.334S516.333,32.667,474.333,33.001z"/>
	<path opacity="0.1" fill="#FFFFFF" d="M631,33.001c-53.87,2.627-75.047,30.182-78.522,98.93c11.947-0.916,23.576-2.007,34.838-3.26
		c1.845-70.377,37.603-68.004,42.019-68.004c4.666,0,28,0.334,40,33.334C669.667,94.334,698,80.667,698,80.667
		S685.666,30.334,631,33.001z"/>
	<path opacity="0.1" fill="#FFFFFF" d="M710.667,103.59c14.42-5.033,26.342-10.521,35.333-16.36V36.334h-35.333V103.59z"/>
</g>
</svg>
